<svg width="106" height="104" viewBox="0 0 106 104" fill="none" xmlns="http://www.w3.org/2000/svg">
<g clip-path="url(#clip0_1_406)">
<path fill-rule="evenodd" clip-rule="evenodd" d="M52.5729 2C24.6555 2 2.04167 24.3955 2.04167 52C2.04167 79.6045 24.6555 102 52.5729 102C80.4904 102 103.104 79.6045 103.104 52C103.104 24.3955 80.4904 2 52.5729 2ZM0.0416718 52C0.0416718 23.2714 23.5705 0 52.5729 0C81.5754 0 105.104 23.2714 105.104 52C105.104 80.7286 81.5754 104 52.5729 104C23.5705 104 0.0416718 80.7286 0.0416718 52Z" fill="black"/>
<path fill-rule="evenodd" clip-rule="evenodd" d="M40.4479 26C29.2716 26 20.2292 34.9641 20.2292 46C20.2292 57.0359 29.2716 66 40.4479 66C51.6242 66 60.6667 57.0359 60.6667 46C60.6667 34.9641 51.6242 26 40.4479 26ZM18.2292 46C18.2292 33.84 28.1867 24 40.4479 24C52.7092 24 62.6667 33.84 62.6667 46C62.6667 58.16 52.7092 68 40.4479 68C28.1867 68 18.2292 58.16 18.2292 46Z" fill="black"/>
<path fill-rule="evenodd" clip-rule="evenodd" d="M62.6771 40C51.5008 40 42.4583 48.9641 42.4583 60C42.4583 71.0359 51.5008 80 62.6771 80C73.8534 80 82.8959 71.0359 82.8959 60C82.8959 48.9641 73.8534 40 62.6771 40ZM40.4583 60C40.4583 47.84 50.4158 38 62.6771 38C74.9384 38 84.8959 47.84 84.8959 60C84.8959 72.16 74.9384 82 62.6771 82C50.4158 82 40.4583 72.16 40.4583 60Z" fill="black"/>
</g>
<defs>
<clipPath id="clip0_1_406">
<rect width="105.083" height="104" fill="white" transform="translate(0.0312576)"/>
</clipPath>
</defs>
</svg>
