<svg width="106" height="104" viewBox="0 0 106 104" fill="none" xmlns="http://www.w3.org/2000/svg">
<g clip-path="url(#clip0_1_431)">
<path d="M52.5521 103C81.012 103 104.083 80.1665 104.083 52C104.083 23.8335 81.012 1 52.5521 1C24.0922 1 1.02084 23.8335 1.02084 52C1.02084 80.1665 24.0922 103 52.5521 103Z" stroke="black" stroke-width="2"/>
<path d="M14.1563 46.0043C17.3215 46.0477 18.9058 48.3067 20.7334 50.9212C22.7242 53.7698 24.9791 57 29.4402 57C33.9014 57 36.1563 53.7698 38.1506 50.9212C39.9956 48.2806 41.5903 46 44.8145 46C48.0423 46 49.6371 48.2806 51.482 50.9212C53.4728 53.7698 55.7312 57 60.1924 57C64.6536 57 66.9084 53.7698 68.9028 50.9212C70.7477 48.2806 72.3424 46 75.5701 46C78.7979 46 80.3926 48.2806 82.2375 50.9212C84.2284 53.7698 86.4868 57 90.9479 57" stroke="black" stroke-width="2" stroke-miterlimit="10"/>
</g>
<defs>
<clipPath id="clip0_1_431">
<rect width="105.083" height="104" fill="white" transform="translate(0.010437)"/>
</clipPath>
</defs>
</svg>
