<svg width="107" height="104" viewBox="0 0 107 104" fill="none" xmlns="http://www.w3.org/2000/svg">
<g clip-path="url(#clip0_1_436)">
<path fill-rule="evenodd" clip-rule="evenodd" d="M53.5105 2C25.5931 2 2.97925 24.3955 2.97925 52C2.97925 79.6045 25.5931 102 53.5105 102C81.4279 102 104.042 79.6045 104.042 52C104.042 24.3955 81.4279 2 53.5105 2ZM0.979248 52C0.979248 23.2714 24.5081 0 53.5105 0C82.5129 0 106.042 23.2714 106.042 52C106.042 80.7286 82.5129 104 53.5105 104C24.5081 104 0.979248 80.7286 0.979248 52Z" fill="black"/>
<path fill-rule="evenodd" clip-rule="evenodd" d="M15.3062 52.6801C23.1017 66.3532 37.9911 72.4131 53.132 71.9782C68.2805 71.5431 83.4628 64.6059 91.7268 52.5556C85.9217 43.3948 73.5848 35.2065 59.3292 33.3787C45.0151 31.5435 28.7626 36.1238 15.3062 52.6801ZM59.5836 31.395C74.6617 33.3282 87.7704 42.1104 93.773 52.0621L94.0993 52.603L93.751 53.13C85.1412 66.1582 69.0661 73.5214 53.1894 73.9774C37.298 74.4338 21.3812 67.9694 13.2269 53.0585L12.9079 52.4752L13.3223 51.9553C27.2996 34.4213 44.434 29.4526 59.5836 31.395Z" fill="black"/>
<path fill-rule="evenodd" clip-rule="evenodd" d="M53.0053 42C47.1303 42 42.3855 46.7108 42.3855 52.5C42.3855 58.2892 47.1303 63 53.0053 63C58.8802 63 63.6251 58.2892 63.6251 52.5C63.6251 46.7108 58.8802 42 53.0053 42ZM40.3855 52.5C40.3855 45.5867 46.0454 40 53.0053 40C59.9652 40 65.6251 45.5867 65.6251 52.5C65.6251 59.4133 59.9652 65 53.0053 65C46.0454 65 40.3855 59.4133 40.3855 52.5Z" fill="black"/>
</g>
<defs>
<clipPath id="clip0_1_436">
<rect width="105.083" height="104" fill="white" transform="translate(0.968811)"/>
</clipPath>
</defs>
</svg>
