<svg width="107" height="104" viewBox="0 0 107 104" fill="none" xmlns="http://www.w3.org/2000/svg">
<g clip-path="url(#clip0_1_419)">
<path fill-rule="evenodd" clip-rule="evenodd" d="M53.4897 2C25.5723 2 2.95844 24.3955 2.95844 52C2.95844 79.6045 25.5723 102 53.4897 102C81.4072 102 104.021 79.6045 104.021 52C104.021 24.3955 81.4072 2 53.4897 2ZM0.958435 52C0.958435 23.2714 24.4873 0 53.4897 0C82.4921 0 106.021 23.2714 106.021 52C106.021 80.7286 82.4921 104 53.4897 104C24.4873 104 0.958435 80.7286 0.958435 52Z" fill="black"/>
<path fill-rule="evenodd" clip-rule="evenodd" d="M53.4897 46.0154L69.2315 72.9999H37.7479L53.4897 46.0154ZM41.23 70.9999H65.7493L53.4897 49.9845L41.23 70.9999Z" fill="black"/>
<path fill-rule="evenodd" clip-rule="evenodd" d="M89.8647 48H17.1147V46H89.8647V48Z" fill="black"/>
</g>
<defs>
<clipPath id="clip0_1_419">
<rect width="105.083" height="104" fill="white" transform="translate(0.947998)"/>
</clipPath>
</defs>
</svg>
