<svg width="107" height="104" viewBox="0 0 107 104" fill="none" xmlns="http://www.w3.org/2000/svg">
<g clip-path="url(#clip0_1_442)">
<path fill-rule="evenodd" clip-rule="evenodd" d="M53.4689 2C25.5514 2 2.93762 24.3955 2.93762 52C2.93762 79.6045 25.5514 102 53.4689 102C81.3863 102 104 79.6045 104 52C104 24.3955 81.3863 2 53.4689 2ZM0.937622 52C0.937622 23.2714 24.4665 0 53.4689 0C82.4713 0 106 23.2714 106 52C106 80.7286 82.4713 104 53.4689 104C24.4665 104 0.937622 80.7286 0.937622 52Z" fill="black"/>
<path fill-rule="evenodd" clip-rule="evenodd" d="M54.4689 20V44H52.4689V20H54.4689Z" fill="black"/>
<path fill-rule="evenodd" clip-rule="evenodd" d="M54.4689 60V84H52.4689V60H54.4689Z" fill="black"/>
<path fill-rule="evenodd" clip-rule="evenodd" d="M85.8022 53H61.5522V51H85.8022V53Z" fill="black"/>
<path fill-rule="evenodd" clip-rule="evenodd" d="M45.3856 53H21.1356V51H45.3856V53Z" fill="black"/>
<path fill-rule="evenodd" clip-rule="evenodd" d="M71.3195 35.7404L59.8879 47.0541L58.4811 45.6325L69.9126 34.3188L71.3195 35.7404Z" fill="black"/>
<path fill-rule="evenodd" clip-rule="evenodd" d="M48.4268 58.7108L36.9952 70.0245L35.5884 68.603L47.0199 57.2893L48.4268 58.7108Z" fill="black"/>
<path fill-rule="evenodd" clip-rule="evenodd" d="M36.9952 33.3188L48.4268 44.6325L47.0199 46.0541L35.5884 34.7404L36.9952 33.3188Z" fill="black"/>
<path fill-rule="evenodd" clip-rule="evenodd" d="M59.8879 56.2893L71.3196 67.603L69.9127 69.0245L58.4811 57.7108L59.8879 56.2893Z" fill="black"/>
<path fill-rule="evenodd" clip-rule="evenodd" d="M53.4689 50C52.3372 50 51.4376 50.9052 51.4376 52C51.4376 53.0948 52.3372 54 53.4689 54C54.6005 54 55.5001 53.0948 55.5001 52C55.5001 50.9052 54.6005 50 53.4689 50ZM49.4376 52C49.4376 49.7811 51.2523 48 53.4689 48C55.6855 48 57.5001 49.7811 57.5001 52C57.5001 54.2189 55.6855 56 53.4689 56C51.2523 56 49.4376 54.2189 49.4376 52Z" fill="black"/>
</g>
<defs>
<clipPath id="clip0_1_442">
<rect width="105.083" height="104" fill="white" transform="translate(0.927246)"/>
</clipPath>
</defs>
</svg>
