<svg width="106" height="104" viewBox="0 0 106 104" fill="none" xmlns="http://www.w3.org/2000/svg">
<g clip-path="url(#clip0_1_425)">
<path fill-rule="evenodd" clip-rule="evenodd" d="M53.448 2C25.5306 2 2.91675 24.3955 2.91675 52C2.91675 79.6045 25.5306 102 53.448 102C81.3655 102 103.979 79.6045 103.979 52C103.979 24.3955 81.3655 2 53.448 2ZM0.916748 52C0.916748 23.2714 24.4456 0 53.448 0C82.4504 0 105.979 23.2714 105.979 52C105.979 80.7286 82.4504 104 53.448 104C24.4456 104 0.916748 80.7286 0.916748 52Z" fill="black"/>
<path fill-rule="evenodd" clip-rule="evenodd" d="M53.4481 24.0154L81.4406 71.9999H25.4556L53.4481 24.0154ZM28.9377 69.9999H77.9585L53.4481 27.9845L28.9377 69.9999Z" fill="black"/>
</g>
<defs>
<clipPath id="clip0_1_425">
<rect width="105.083" height="104" fill="white" transform="translate(0.906372)"/>
</clipPath>
</defs>
</svg>
