<svg width="33" height="32" viewBox="0 0 33 32" fill="none" xmlns="http://www.w3.org/2000/svg">
<path fill-rule="evenodd" clip-rule="evenodd" d="M21.0478 19.3629L30.685 29.0001L29.2708 30.4143L19.6335 20.7771L21.0478 19.3629Z" fill="#111111"/>
<path fill-rule="evenodd" clip-rule="evenodd" d="M1.27075 13C1.27075 6.37259 6.64334 1 13.2708 1C19.8981 1 25.2708 6.37258 25.2708 13C25.2708 19.6274 19.8981 25 13.2708 25C6.64334 25 1.27075 19.6274 1.27075 13ZM13.2708 3C7.74791 3 3.27075 7.47715 3.27075 13C3.27075 18.5228 7.74791 23 13.2708 23C18.7936 23 23.2708 18.5228 23.2708 13C23.2708 7.47716 18.7936 3 13.2708 3Z" fill="#111111"/>
</svg>
